<?xml version="1.0" encoding="utf-8"?>
<!-- Generator: Adobe Illustrator 16.0.0, SVG Export Plug-In . SVG Version: 6.00 Build 0)  -->
<!DOCTYPE svg PUBLIC "-//W3C//DTD SVG 1.1//EN" "http://www.w3.org/Graphics/SVG/1.1/DTD/svg11.dtd">
<svg version="1.1" id="Layer_1" xmlns="http://www.w3.org/2000/svg" xmlns:xlink="http://www.w3.org/1999/xlink" x="0px" y="0px"
	 width="123.12px" height="48.84px" viewBox="0 0 123.12 48.84" enable-background="new 0 0 123.12 48.84" xml:space="preserve">
<g>
	<g>
		<path fill="#004584" d="M109.441,9.84v10.78c-0.96-0.28-1.71-0.41-2.22-0.41c-1.02,0-1.91,0.31-2.62,0.96
			c-0.72,0.62-1.1,1.38-1.1,2.28c0,0.76,0.41,1.73,1.2,2.87l1.02,1.52c1.84,2.69,2.76,5.32,2.76,7.8c0,3.7-1.529,6.81-4.64,9.36
			c-3.1,2.56-6.89,3.84-11.36,3.84c-2.149,0-4.26-0.42-6.34-1.24V36.65c1.26,0.65,2.391,1,3.38,1c1.16,0,2.11-0.28,2.9-0.83
			c0.78-0.59,1.16-1.28,1.16-2.14c0-0.56-0.62-1.76-1.88-3.63c-1.98-2.97-2.971-5.94-2.971-8.88c0-3.59,1.5-6.66,4.5-9.25
			c3.011-2.56,6.591-3.87,10.79-3.87C105.862,9.05,107.672,9.33,109.441,9.84z"/>
		<path fill="#004584" d="M74.302,20.9v25.56c0,0.06,0.07,0.82-0.24,1.14c-0.37,0.34-1.09,0.31-1.189,0.31h-10.44
			c-0.479,0-0.85-0.04-1.13-0.38c-0.27-0.28-0.3-0.59-0.3-1.07V20.9h-10.24V10.02h32.34c0.55,0,0.75,0.13,1.03,0.38
			c0.23,0.24,0.34,0.48,0.37,0.93v8.22c0,0.28,0.04,0.72-0.311,1.07c-0.34,0.31-0.81,0.24-1.119,0.28H74.302z"/>
		<polygon fill="#004584" points="40.762,20.9 40.762,47.91 27.432,47.91 27.432,20.9 17.222,20.9 17.222,10.02 50.901,10.02 
			50.901,20.9 		"/>
		<rect x="0.002" y="10.02" fill="#004584" width="13.3" height="37.89"/>
	</g>
	<g>
		<path fill="#004584" d="M119.202,10.43l0.069-0.07l0.03-0.1l0.07-0.07l0.029-0.1l-0.1,0.03l-0.1,0.03h-0.141l-0.1,0.04l-0.1,0.03
			l-0.141,0.04h-0.1l-0.141,0.03h-0.1l-0.14,0.04h-0.101h-0.14l-0.13,0.03h-0.11h-0.1h-0.13v0.49l-0.45-0.04v-0.45h-0.13h-0.141
			h-0.14l-0.13-0.03h-0.141l-0.14-0.04h-0.13l-0.14-0.03l0.069-0.52l0.13,0.03h0.11l0.13,0.04h0.141h0.1l0.14,0.03h0.141h0.13V8.91
			l0.45,0.28v0.65h0.13h0.14l0.13-0.03h0.141h0.14l0.13-0.04l0.14-0.03h0.141l0.13-0.03l0.14-0.04l0.141-0.03l0.13-0.04l0.109-0.03
			l0.13-0.04l0.141-0.03l0.1-0.04l0.07-0.1l0.03-0.1l0.069-0.11l0.04-0.1l0.03-0.1l0.03-0.11l0.04-0.1V8.63l0.609-0.38v0.11
			l-0.029,0.14l-0.04,0.1l-0.03,0.14l-0.04,0.14l-0.06,0.1l-0.04,0.14l-0.07,0.14l0.21-0.14l0.2-0.11l0.17-0.1l0.17-0.14l0.21-0.1
			l0.17-0.14l0.14-0.14l0.17-0.17l0.131-0.14l0.14-0.17l0.14-0.14l0.101-0.17l0.1-0.17l0.1-0.18l0.07-0.13l0.07-0.21l0.03-0.24
			l0.04-0.28l0.029-0.28V5.84V5.8V5.77l-0.069,0.14l-0.03,0.1l-0.101,0.1l-0.069,0.14l-0.101,0.11l-0.109,0.1l-0.13,0.1l-0.141,0.11
			l-0.13,0.1l-0.14,0.07l-0.141,0.1l-0.13,0.11l-0.17,0.07l-0.18,0.1l-0.13,0.07l-0.17,0.07V7.6l-0.04,0.21l-0.03,0.2l-0.07,0.24
			l-0.609,0.38l0.069-0.24l0.03-0.27l0.07-0.24l0.029-0.28l-0.17,0.07l-0.13,0.03l-0.18,0.07l-0.13,0.04l-0.17,0.03l-0.141,0.07
			l-0.17,0.03l-0.17,0.04h-0.17l-0.17,0.03l-0.17,0.04l-0.17,0.03h-0.17l-0.17,0.04h-0.17h-0.17v1.07l-0.45-0.28V8.12h-0.17h-0.141
			l-0.17-0.04h-0.13l-0.17-0.03h-0.14l-0.17-0.04l-0.141-0.03l-0.3-0.59l0.1,0.04h0.07l0.101,0.03h0.1l0.1,0.04h0.11l0.06,0.03h0.11
			h0.1l0.101,0.03h0.1h0.07l0.1,0.04h0.11h0.1h0.101V6.53l0.45-0.04V7.6h0.17l0.199-0.04h0.171l0.21-0.03l0.17-0.03h0.199
			l0.171-0.04l0.17-0.03l0.21-0.04l0.13-0.07l0.17-0.03l0.17-0.04l0.14-0.07l0.141-0.03l0.13-0.07l0.109-0.03l0.03-0.28V6.53V6.29
			V6.01l-0.03-0.03V5.91V5.87V5.84l0.54-0.04v0.04v0.03v0.07v0.07v0.17l0.04,0.21v0.17l-0.04,0.21l0.17-0.1l0.171-0.11l0.17-0.1
			l0.17-0.1l0.14-0.11l0.17-0.1l0.141-0.11l0.1-0.13l0.14-0.11l0.101-0.14l0.1-0.1l0.07-0.17l0.069-0.14l0.07-0.14l0.03-0.14V4.8
			l-0.03-0.17l-0.04-0.21l-0.07-0.17l-0.029-0.17l-0.07-0.14l-0.07-0.18l-0.069-0.17l-0.061-0.17l-0.069,0.1l-0.04,0.11l-0.061,0.1
			l-0.069,0.1l-0.07,0.11l-0.101,0.07l-0.069,0.1l-0.101,0.07l-0.109,0.1l-0.101,0.07l-0.1,0.11l-0.14,0.06l-0.101,0.07l-0.14,0.07
			l-0.101,0.07l-0.17,0.07l0.07,0.24l0.03,0.24l0.04,0.28l0.029,0.24l-0.54,0.04V5.63l-0.04-0.21l-0.029-0.2l-0.04-0.18l-0.13,0.04
			l-0.141,0.03l-0.14,0.07l-0.17,0.04l-0.13,0.03l-0.17,0.03l-0.141,0.04l-0.17,0.03l-0.17,0.04l-0.17,0.03h-0.17l-0.17,0.04
			l-0.14,0.03h-0.2h-0.17h-0.17v1l-0.45,0.04V5.49h-0.101h-0.14h-0.1h-0.101l-0.1-0.03h-0.141h-0.1l-0.11-0.04h-0.1l-0.1-0.03
			h-0.101l-0.1-0.04h-0.11l-0.1-0.03h-0.101l-0.1-0.04l0.34-0.48l0.17,0.04l0.13,0.03l0.17,0.03l0.181,0.04h0.17l0.17,0.03h0.17h0.2
			V3.94l0.45,0.03v1h0.17h0.17l0.17-0.03h0.17l0.13-0.04l0.17-0.03h0.17l0.141-0.03l0.17-0.04l0.14-0.03l0.14-0.04l0.17-0.03
			l0.131-0.07l0.14-0.04l0.14-0.03l0.13-0.07l-0.069-0.17l-0.061-0.21l-0.04-0.17l-0.069-0.21l0.279-0.62l0.061,0.14l0.069,0.14
			l0.07,0.13l0.03,0.14l0.07,0.17l0.04,0.14l0.06,0.14l0.04,0.17l0.27-0.17l0.24-0.14l0.21-0.21l0.2-0.17l0.14-0.2l0.101-0.21
			l0.069-0.21V2.76l-0.109-0.17l-0.13-0.17l-0.141-0.14l-0.13-0.17l-0.18-0.18l-0.13-0.1l-0.141-0.14l-0.13-0.1l-0.069,0.1
			l-0.11,0.11l-0.1,0.13l-0.101,0.11l-0.1,0.07l-0.141,0.1l-0.13,0.1l-0.18,0.11l0.07,0.07l0.04,0.07l0.029,0.1l0.07,0.07l0.03,0.1
			l0.04,0.11l0.029,0.07l0.04,0.1l-0.279,0.62l-0.07-0.14l-0.06-0.14l-0.07-0.13l-0.07-0.18l-0.07-0.13l-0.069-0.14l-0.061-0.14
			l-0.069-0.11l-0.11,0.04h-0.06l-0.11,0.03l-0.1,0.04l-0.101,0.03l-0.1,0.04h-0.11l-0.1,0.03l-0.101,0.04h-0.1h-0.11l-0.13,0.03
			h-0.1h-0.11l-0.13,0.04h-0.1v1.03l-0.45-0.03v-1h-0.13l-0.141-0.04h-0.1h-0.14l-0.101-0.03h-0.14l-0.141-0.04l-0.1-0.03l0.28-0.49
			l0.1,0.04h0.07h0.06l0.11,0.03h0.1h0.07h0.1l0.101,0.04V1.97l0.45-0.42v0.87l0.1-0.04h0.1h0.07h0.1l0.101-0.03h0.1h0.07l0.11-0.04
			h0.06l0.11-0.03h0.06l0.11-0.03l0.06-0.04h0.07l0.07-0.03l0.1-0.04l-0.03-0.03l-0.029-0.07l-0.04-0.07l-0.07-0.07l-0.03-0.07
			l-0.04-0.07l-0.03-0.07l-0.069-0.07l0.24-0.51l0.069,0.1l0.07,0.07l0.1,0.1l0.07,0.11l0.07,0.1l0.069,0.14l0.061,0.1l0.069,0.14
			l0.141-0.1l0.13-0.07l0.11-0.07l0.1-0.11l0.1-0.07l0.07-0.1l0.07-0.1l0.029-0.07l-0.1-0.11l-0.14-0.06l-0.101-0.07l-0.1-0.07
			l-0.1-0.07l-0.141-0.04l-0.1-0.07l-0.101-0.03l-0.109-0.03l-0.13-0.04l-0.11-0.03l-0.1-0.04l-0.101-0.03h-0.07l-0.1-0.04h-0.1
			l0.029,0.04v0.03v0.04v0.03v0.04l-0.029,0.03v0.03l0.029,0.04l0.07,0.03l0.03,0.04l0.04,0.03l0.06,0.04l0.04,0.07l0.03,0.03
			l0.07,0.04l-0.24,0.51l-0.03-0.07l-0.1-0.06l-0.07-0.07l-0.07-0.11l-0.069-0.07l-0.07-0.03l-0.07-0.07l-0.06-0.07h-0.04h-0.03
			l-0.04,0.04h-0.03h-0.029h-0.04l-0.03,0.03h-0.04l-0.17-0.35l0.11-0.03l0.06-0.03l0.04-0.04l0.03-0.07V0.59l-0.03-0.04l-0.07-0.03
			l-0.069-0.04h-0.07l-0.06-0.03h-0.141h-0.1h-0.11h-0.1l-0.07,0.03h-0.1l-0.07,0.04l-0.03,0.03l-0.04,0.04v0.03v0.04l0.04,0.03
			l0.03,0.04l0.07,0.03l0.1,0.03h0.07l0.1,0.04h0.11h0.06h0.04h0.03h0.04l0.03-0.04h0.04h0.029h0.03l0.17,0.35h-0.06h-0.07h-0.04
			l-0.06,0.03v0.38l-0.45,0.42V1.14h-0.07h-0.06h-0.07l-0.07-0.03h-0.069l-0.03-0.04h-0.07l-0.069-0.03l-0.03,0.07l-0.07,0.03
			l-0.07,0.07l-0.069,0.07l-0.03,0.03l-0.07,0.07l-0.069,0.07l-0.07,0.07l-0.51-0.17l0.1-0.11l0.07-0.1l0.07-0.07l0.1-0.07
			l0.07-0.07l0.069-0.07l0.07-0.03l0.06-0.07V0.73h-0.029V0.69V0.66V0.62V0.59l0.029-0.04V0.52l-0.1,0.03l-0.13,0.04h-0.14
			l-0.141,0.07l-0.13,0.03l-0.14,0.04l-0.17,0.06l-0.17,0.07l-0.271-0.27c0.75-0.38,1.6-0.59,2.521-0.59c3.21,0,5.8,2.62,5.8,5.87
			s-2.59,5.87-5.8,5.87s-5.801-2.62-5.801-5.87c0-2.31,1.33-4.32,3.28-5.28l0.271,0.27l-0.07,0.04l-0.07,0.03l-0.1,0.07l-0.07,0.04
			l-0.1,0.03l-0.07,0.07l-0.07,0.07l-0.069,0.07l0.04,0.07l0.069,0.1l0.07,0.1l0.06,0.07l0.11,0.11l0.13,0.07l0.101,0.07l0.14,0.1
			l0.07-0.1l0.029-0.07l0.07-0.11l0.04-0.07l0.06-0.07l0.04-0.06l0.07-0.07l0.03-0.07l0.51,0.17l-0.03,0.07l-0.069,0.07l-0.07,0.1
			l-0.07,0.07l-0.029,0.07l-0.07,0.1l-0.03,0.07l-0.04,0.07l0.07,0.04l0.07,0.03h0.1l0.1,0.04l0.07,0.03h0.1l0.07,0.03h0.11
			l-0.28,0.49h-0.1l-0.07-0.04l-0.1-0.03h-0.101l-0.07-0.04l-0.1-0.03l-0.07-0.04h-0.069l-0.101,0.11l-0.069,0.14l-0.07,0.1
			l-0.03,0.14l-0.069,0.14l-0.07,0.14l-0.07,0.13l-0.03,0.14l-0.449-0.31l0.04-0.1l0.069-0.14l0.07-0.1l0.03-0.14l0.069-0.14
			l0.07-0.11l0.061-0.1l0.039-0.1l-0.14-0.11l-0.13-0.1l-0.14-0.1l-0.141-0.07l-0.1-0.11l-0.101-0.13l-0.069-0.11l-0.07-0.1
			l-0.14,0.1l-0.17,0.14l-0.13,0.1l-0.141,0.18l-0.14,0.17l-0.13,0.14l-0.141,0.17l-0.13,0.17l0.03,0.21l0.07,0.21l0.1,0.21
			l0.14,0.2l0.17,0.17l0.24,0.21l0.23,0.14l0.279,0.17l0.03-0.14l0.04-0.1l0.03-0.1l0.03-0.14l0.04-0.1l0.029-0.11l0.07-0.1
			l0.03-0.14l0.449,0.31l-0.039,0.1l-0.061,0.11l-0.04,0.1l-0.03,0.11l-0.04,0.1v0.1l-0.029,0.11l-0.03,0.1l0.1,0.07l0.131,0.03
			l0.14,0.04l0.14,0.03l0.13,0.04l0.141,0.07h0.17l0.14,0.03l-0.34,0.48l-0.14-0.03l-0.101-0.03l-0.109-0.04h-0.101l-0.1-0.03
			l-0.101-0.04l-0.1-0.03l-0.11-0.04l-0.029,0.18l-0.04,0.17l-0.03,0.21l-0.03,0.2l-0.479-0.27V5.35l0.029-0.17l0.04-0.21l0.03-0.17
			l-0.14-0.07l-0.13-0.07l-0.141-0.07l-0.1-0.07l-0.101-0.06l-0.109-0.11l-0.13-0.07l-0.07-0.1l-0.1-0.07l-0.101-0.1l-0.069-0.07
			l-0.07-0.11l-0.07-0.1l-0.069-0.1l-0.07-0.11l-0.03-0.1l-0.07,0.17l-0.069,0.17l-0.061,0.18l-0.069,0.14l-0.07,0.17l-0.04,0.17
			l-0.06,0.21l-0.04,0.17l0.04,0.17l0.029,0.14l0.03,0.14l0.07,0.14l0.109,0.17l0.101,0.1l0.1,0.14l0.101,0.11l0.14,0.13l0.14,0.11
			l0.13,0.1l0.17,0.11l0.141,0.1l0.17,0.1l0.17,0.11l0.17,0.1V6.56V6.39V6.18V6.01l0.03-0.14v-0.1V5.66l0.04-0.13l0.479,0.27v0.07
			v0.04v0.07v0.03v0.28v0.24v0.24v0.28l0.13,0.03l0.11,0.07l0.13,0.03l0.14,0.07l0.171,0.04l0.14,0.03l0.17,0.04l0.17,0.03l0.3,0.59
			h-0.1l-0.07-0.04h-0.1l-0.101-0.03h-0.069l-0.101-0.03l-0.1-0.04h-0.07l-0.109-0.03l-0.061-0.04h-0.109l-0.061-0.03l-0.11-0.04
			l-0.06-0.03l-0.11-0.04l-0.069-0.03l0.04,0.21l0.029,0.2l0.04,0.21l0.03,0.21l-0.61-0.35l-0.04-0.17V7.74l-0.029-0.21l-0.04-0.17
			l-0.13-0.07l-0.17-0.07l-0.141-0.1l-0.17-0.07l-0.14-0.11l-0.17-0.1l-0.13-0.07l-0.141-0.1l-0.14-0.11l-0.101-0.1l-0.1-0.1
			l-0.1-0.11l-0.11-0.14l-0.06-0.1l-0.07-0.1l-0.07-0.14V5.8v0.04l0.03,0.27v0.28l0.04,0.28l0.07,0.24l0.06,0.21l0.07,0.13
			l0.109,0.18l0.101,0.17l0.1,0.17l0.14,0.14l0.131,0.17l0.14,0.14l0.14,0.17l0.17,0.14l0.17,0.14l0.171,0.1l0.17,0.14l0.199,0.1
			l0.21,0.11l0.2,0.14l-0.1-0.18l-0.03-0.13l-0.07-0.14l-0.039-0.14l-0.03-0.17l-0.03-0.14l-0.04-0.14l-0.03-0.14l0.61,0.35v0.1
			l0.04,0.14l0.03,0.14l0.069,0.14l0.03,0.1l0.07,0.14l0.03,0.14l0.069,0.13l0.141,0.04l0.14,0.03l0.13,0.04l0.14,0.07h0.131
			l0.18,0.07h0.13l0.14,0.03l-0.069,0.52h-0.101l-0.14-0.04l-0.101-0.03l-0.1-0.04l-0.11-0.03l-0.13-0.03h-0.1l-0.07-0.04l0.03,0.1
			l0.04,0.11v0.1l0.06,0.11h-0.409l-0.061-0.07l-0.07-0.11l-0.04-0.07l-0.029-0.07l-0.03-0.06l-0.04-0.07l-0.03-0.07V9.88
			l-0.14-0.07l-0.14-0.04l-0.131-0.06l-0.14-0.11l-0.14-0.07l-0.13-0.07l-0.141-0.1l-0.13-0.07l-0.14-0.1l-0.141-0.11l-0.13-0.1
			l-0.109-0.1l-0.101-0.07l-0.1-0.11l-0.07-0.1l-0.069-0.1l0.1,0.24l0.14,0.21l0.141,0.17l0.17,0.21l0.13,0.17l0.18,0.17l0.17,0.17
			l0.2,0.14l0.17,0.14l0.21,0.17l0.17,0.11l0.2,0.13l0.17,0.11l0.21,0.1l0.17,0.07l0.13,0.1l-0.06-0.06l-0.07-0.07l-0.04-0.04
			l-0.069-0.07l-0.03-0.07l-0.07-0.03l-0.03-0.07l-0.039-0.03h0.409l0.11,0.13l0.1,0.11l0.131,0.1l0.14,0.1l0.14,0.07l0.13,0.07
			l0.11,0.07l0.13,0.04l0.11,0.07l0.13,0.03h0.1l0.11,0.03h0.1l0.07,0.04h0.1h0.101v-0.52l0.45,0.04v0.48h0.1h0.07l0.1-0.04h0.1
			l0.101-0.03l0.1-0.03h0.11l0.1-0.07l0.101-0.04l0.1-0.07l0.14-0.07l0.101-0.07l0.11-0.1l0.13-0.1l0.1-0.14L119.202,10.43
			l0.58-0.03l-0.04,0.07l-0.07,0.03l-0.03,0.07l-0.029,0.07l-0.07,0.03l-0.04,0.07l-0.061,0.07l-0.069,0.04l0.17-0.07l0.17-0.11
			l0.17-0.1l0.2-0.1l0.17-0.11l0.17-0.1l0.18-0.14l0.2-0.14l0.17-0.17l0.17-0.14l0.17-0.17l0.141-0.17l0.13-0.21l0.18-0.21
			l0.101-0.17l0.1-0.24l-0.07,0.1l-0.069,0.1l-0.101,0.11l-0.1,0.07l-0.101,0.1l-0.14,0.1l-0.14,0.11l-0.13,0.1l-0.141,0.07
			l-0.14,0.1l-0.13,0.07l-0.141,0.07l-0.14,0.11l-0.13,0.06l-0.101,0.04l-0.14,0.07l-0.03,0.07l-0.04,0.07l-0.029,0.03l-0.04,0.07
			l-0.03,0.07l-0.03,0.07l-0.04,0.07l-0.029,0.07L119.202,10.43z"/>
	</g>
</g>
</svg>
